<svg xmlns="http://www.w3.org/2000/svg" width="564" height="168" fill="none" xmlns:v="https://vecta.io/nano"><style><![CDATA[.B{fill:#fff}]]></style><g transform="matrix(4.2003 0 0 4.2003 -1.9984 0)"><path d="M124.88 0H9.28h-.907C7.71.01 7.049.068 6.395.176s-1.28.319-1.867.619-1.13.694-1.6 1.163a6.29 6.29 0 0 0-1.163 1.6c-.304.595-.514 1.234-.624 1.893a12.6 12.6 0 0 0-.176 1.976l-.016.909v23.331l.016.912c.007.662.066 1.323.176 1.976s.317 1.279.616 1.867A6.35 6.35 0 0 0 4.52 39.2c.587.3 1.217.511 1.867.624.654.107 1.316.165 1.979.173h.907 116.67.909a13.16 13.16 0 0 0 1.973-.173 6.74 6.74 0 0 0 1.886-.624 6.18 6.18 0 0 0 1.6-1.163 6.28 6.28 0 0 0 1.168-1.6c.296-.588.502-1.217.61-1.867s.172-1.314.184-1.976v-.912-1.067V9.413 8.347v-.909c-.012-.662-.073-1.323-.184-1.976s-.315-1.278-.61-1.867c-.605-1.198-1.57-2.175-2.76-2.795-.595-.297-1.23-.503-1.886-.611s-1.312-.167-1.973-.176h-.909z" clip-path="url(#Z)" fill="#b6b6b6"/><path d="M9.29 39.136h-.893c-.618-.008-1.235-.062-1.845-.16-.568-.096-1.119-.276-1.635-.533-1.025-.525-1.859-1.358-2.387-2.381-.26-.516-.439-1.068-.533-1.637a12 12 0 0 1-.163-1.851l-.016-.901V8.336l.016-.883a11.83 11.83 0 0 1 .16-1.853 5.66 5.66 0 0 1 .533-1.643c.259-.509.599-.973 1.005-1.373.406-.407.873-.748 1.384-1.011a5.81 5.81 0 0 1 1.632-.533C7.161.939 7.779.885 8.399.877h118.45c.614.005 1.228.059 1.834.16.573.094 1.129.274 1.648.533a5.5 5.5 0 0 1 2.384 2.4 5.71 5.71 0 0 1 .534 1.629c.102.617.159 1.241.17 1.867v.88 1.067 21.173 1.067.92c-.009.613-.066 1.225-.168 1.829a5.6 5.6 0 0 1-.533 1.648c-.53 1.02-1.363 1.85-2.384 2.376a5.74 5.74 0 0 1-1.645.533 12.46 12.46 0 0 1-1.846.16h-.885H9.288z" clip-path="url(#Y)" fill="#000"/><g class="B"><path d="M50.445 27.003h-4.691l-1.139 3.131h-2.061l4.587-11.696h1.947l4.691 11.696h-2.157zm-4.093-1.6h3.493l-1.251-3.349-.507-1.533-.493 1.517z" clip-path="url(#X)"/><path d="M54.608 23.555l-.064-2.133h1.867c.07.366.118.735.144 1.107.327-.391.734-.707 1.194-.927a3.53 3.53 0 0 1 1.472-.343c.598-.009 1.185.16 1.686.485s.894.794 1.128 1.344a5.56 5.56 0 0 1 .456 2.4c.02.898-.162 1.79-.533 2.608-.311.679-.818 1.25-1.456 1.637a4.16 4.16 0 0 1-2.163.557 5.31 5.31 0 0 1-1.752-.299V33.6l-1.995.171zM59.851 28c.405-.533.611-1.333.611-2.4 0-.972-.169-1.684-.507-2.133a1.6 1.6 0 0 0-1.333-.656c-.373-.005-.74.087-1.067.267-.347.197-.662.444-.936.733v4.667c.221.104.454.181.693.229a3.78 3.78 0 0 0 .784.085A2.07 2.07 0 0 0 59.851 28z" clip-path="url(#W)"/><path d="M63.704 23.555l-.064-2.133h1.867a8.79 8.79 0 0 1 .147 1.107c.777-.846 1.666-1.269 2.667-1.269.598-.009 1.185.16 1.686.485s.894.794 1.128 1.344a5.56 5.56 0 0 1 .456 2.4c.025.897-.153 1.789-.52 2.608-.311.68-.82 1.25-1.459 1.637-.656.38-1.404.573-2.163.557a5.31 5.31 0 0 1-1.752-.299V33.6l-1.995.171zM68.955 28c.405-.546.608-1.346.608-2.4 0-.972-.168-1.684-.504-2.133a1.6 1.6 0 0 0-1.333-.656 2.16 2.16 0 0 0-1.067.267 4 4 0 0 0-.936.733v4.667c.221.103.454.18.693.229a3.78 3.78 0 0 0 .784.085c.335.02.669-.042.975-.18s.573-.348.78-.612z" clip-path="url(#V)"/><path d="M75.256 29.581a4.85 4.85 0 0 1-1.987-2.045c-.484-.978-.722-2.059-.693-3.149-.035-1.167.242-2.322.8-3.347.504-.89 1.262-1.609 2.176-2.067a6.81 6.81 0 0 1 3.088-.691 8.08 8.08 0 0 1 1.925.224c.59.139 1.162.343 1.707.608l-.517 1.533a7.08 7.08 0 0 0-3.037-.757 4.25 4.25 0 0 0-2.133.533c-.619.355-1.116.889-1.427 1.531a5.37 5.37 0 0 0-.507 2.437c-.013.758.119 1.511.389 2.219a3.29 3.29 0 0 0 1.237 1.536c.638.399 1.382.596 2.133.565a7.11 7.11 0 0 0 1.163-.099 5.88 5.88 0 0 0 1.091-.283v-2.379H77.96v-1.549h4.643v4.931a10.36 10.36 0 0 1-2.104.717 9.82 9.82 0 0 1-2.192.251c-1.062.026-2.112-.222-3.051-.72z" clip-path="url(#U)"/><path d="M89.688 30.133a7.66 7.66 0 0 1-.139-1.155c-.333.388-.74.705-1.197.933-.516.261-1.088.393-1.667.384A3.14 3.14 0 0 1 85.315 30a2.25 2.25 0 0 1-.979-.888c-.255-.439-.381-.941-.365-1.448a2.48 2.48 0 0 1 .915-2.021c.608-.505 1.622-.756 3.043-.755.529 0 1.058.037 1.581.112v-.171c0-.768-.163-1.31-.491-1.627a1.97 1.97 0 0 0-1.413-.472c-.461.006-.92.068-1.365.187a7.16 7.16 0 0 0-1.285.443l-.315-1.451a7.68 7.68 0 0 1 1.403-.445c.605-.137 1.223-.205 1.843-.203a4.8 4.8 0 0 1 1.92.344c.536.237.973.654 1.235 1.179.327.703.48 1.474.445 2.248v3.467l.064 1.637zm-1.195-1.6c.384-.179.73-.431 1.016-.744v-1.6c-.443-.052-.888-.082-1.333-.088-.823 0-1.393.133-1.709.4-.154.13-.277.294-.359.479s-.12.386-.113.588a1.22 1.22 0 0 0 .344.955c.26.219.594.331.933.312a2.8 2.8 0 0 0 1.221-.301z" clip-path="url(#T)"/><path d="M93.026 28.043V17.75l1.984-.16v10.099a1.26 1.26 0 0 0 .189.8c.076.082.17.145.275.186s.217.056.328.046c.181-.008.36-.038.533-.091l.235 1.429c-.223.084-.455.145-.691.181a4.73 4.73 0 0 1-.771.069c-1.388-.009-2.083-.764-2.083-2.267z" clip-path="url(#S)"/><path d="M97.989 28.043V17.75l1.987-.16v10.099c-.028.28.038.562.189.8.076.082.17.145.274.186a.74.74 0 0 0 .329.046c.18-.008.36-.038.533-.091l.232 1.429c-.222.084-.453.145-.688.181a4.72 4.72 0 0 1-.773.069c-1.387-.009-2.081-.764-2.083-2.267z" clip-path="url(#R)"/><path d="M109.69 26.032h-5.699c.091 1.826.96 2.739 2.608 2.739.423-.002.845-.052 1.256-.149.421-.098.832-.232 1.23-.4l.437 1.365c-1.027.484-2.151.727-3.285.709-.813.023-1.619-.16-2.342-.533-.626-.338-1.128-.867-1.434-1.509a5.36 5.36 0 0 1-.48-2.373c-.023-.857.152-1.707.509-2.485a3.7 3.7 0 0 1 1.416-1.6c.634-.374 1.36-.564 2.096-.549a3.52 3.52 0 0 1 2.061.579c.551.382.977.917 1.227 1.539a5.45 5.45 0 0 1 .4 2.133zm-1.944-1.267c.004-.566-.184-1.117-.533-1.563-.157-.175-.35-.314-.566-.406a1.6 1.6 0 0 0-.685-.127c-.236-.005-.471.04-.689.132s-.414.229-.575.401c-.376.438-.606.982-.659 1.557z" clip-path="url(#Q)"/><path d="M111.2 23.611l-.066-2.187H113l.094.867.058.821c.201-.34.429-.663.683-.965.22-.259.486-.475.784-.637.313-.169.665-.255 1.021-.248a2.75 2.75 0 0 1 .8.099l-.25 1.728c-.313-.09-.641-.113-.962-.067a2.29 2.29 0 0 0-.905.334 5.05 5.05 0 0 0-1.139 1.179v5.6H111.2z" clip-path="url(#P)"/><path d="M117.55 33.699a4.82 4.82 0 0 1-.718-.173l.363-1.453c.168.045.338.082.509.109.192.034.387.052.582.053.888 0 1.55-.568 1.984-1.704l.13-.323-3.213-8.784h2.133l1.632 4.909c.209.631.378 1.275.507 1.928l.533-1.888 1.627-4.949h2.008l-3.2 8.824c-.242.711-.57 1.389-.979 2.019-.311.476-.737.866-1.237 1.136a3.7 3.7 0 0 1-1.725.373 5.45 5.45 0 0 1-.936-.077z" clip-path="url(#O)"/><path d="M42.554 7.301h3.547l-.099.859h-2.413v1.661h2.275v.8h-2.275v1.84h2.541l-.088.872h-3.488z" clip-path="url(#N)"/><path d="M48.552 10.256l-1.867-2.955h1.184l1.269 2.171 1.333-2.171h1.149l-1.867 2.917 2.019 3.115h-1.2l-1.437-2.373-1.464 2.373h-1.149z" clip-path="url(#M)"/><path d="M52.538 7.301h1.627c.763 0 1.347.156 1.755.467a1.6 1.6 0 0 1 .608 1.349 1.96 1.96 0 0 1-.267 1.048c-.181.298-.445.537-.76.688-.35.165-.733.248-1.12.24-.269-.004-.536-.031-.8-.083v2.323h-1.043zm2.613 2.693a1.09 1.09 0 0 0 .333-.851c.014-.151-.01-.303-.069-.442s-.152-.262-.269-.358c-.3-.183-.649-.268-1-.245h-.565v2.133c.198.036.399.056.6.061a1.39 1.39 0 0 0 .971-.299z" clip-path="url(#L)"/><path d="M57.557 7.301h1.04v5.141h2.496l-.088.891h-3.448z" clip-path="url(#K)"/><path d="M62.677 13.037a2.5 2.5 0 0 1-1.013-1.067c-.243-.498-.362-1.046-.349-1.6-.013-.579.115-1.151.373-1.669.236-.467.608-.852 1.067-1.104.513-.269 1.088-.399 1.667-.379a3.12 3.12 0 0 1 1.571.376c.434.247.785.618 1.005 1.067.238.493.356 1.034.344 1.581a3.58 3.58 0 0 1-.376 1.688 2.65 2.65 0 0 1-1.067 1.104 3.33 3.33 0 0 1-1.64.389c-.552.014-1.098-.12-1.581-.387zm2.699-.739a1.76 1.76 0 0 0 .656-.8 3.02 3.02 0 0 0 .216-1.176c.007-.395-.058-.788-.192-1.16-.12-.322-.333-.601-.613-.8-.325-.199-.698-.304-1.079-.304s-.754.105-1.079.304c-.295.205-.524.49-.661.821a2.8 2.8 0 0 0-.221 1.133 3.13 3.13 0 0 0 .208 1.173c.128.342.361.635.667.835s.667.298 1.032.279a1.85 1.85 0 0 0 1.067-.307z" clip-path="url(#J)"/><path d="M68.501 7.301h1.888c.553-.039 1.104.106 1.565.413a1.4 1.4 0 0 1 .533 1.179 1.78 1.78 0 0 1-.192.843 1.87 1.87 0 0 1-.475.595c-.177.142-.374.256-.587.336l1.867 2.667h-1.213l-1.571-2.4h-.765v2.4h-1.051zm1.635 2.853a1.46 1.46 0 0 0 .669-.147 1.1 1.1 0 0 0 .456-.408 1.19 1.19 0 0 0 .163-.621.76.76 0 0 0-.288-.664c-.25-.157-.543-.23-.837-.211h-.755v2.061z" clip-path="url(#I)"/><path d="M73.914 7.301h3.555l-.101.859h-2.4v1.661h2.253v.8h-2.275v1.84h2.541l-.077.872h-3.496z" clip-path="url(#H)"/><path d="M81.336 7.301h1.04v6.032h-1.04z" clip-path="url(#G)"/><path d="M85.13 8.171h-1.867l.091-.869h4.693l-.096.869h-1.779v5.163H85.13z" clip-path="url(#F)"/><path d="M92.568 13.037c-.436-.246-.788-.618-1.011-1.067a3.43 3.43 0 0 1-.352-1.6 3.57 3.57 0 0 1 .373-1.669c.237-.466.609-.851 1.067-1.104a3.35 3.35 0 0 1 1.656-.389c.554-.015 1.102.119 1.587.387.435.246.785.618 1.005 1.067.239.492.358 1.034.347 1.581a3.55 3.55 0 0 1-.379 1.688c-.238.466-.609.85-1.067 1.104-.504.269-1.069.403-1.64.389-.554.015-1.102-.119-1.587-.387zm2.701-.739a1.77 1.77 0 0 0 .653-.8 3.02 3.02 0 0 0 .216-1.176c.007-.395-.058-.788-.192-1.16a1.71 1.71 0 0 0-.611-.8 2.07 2.07 0 0 0-2.16 0c-.295.205-.524.49-.661.821-.15.359-.226.744-.221 1.133a3.13 3.13 0 0 0 .208 1.173c.127.329.349.613.637.816.316.208.689.313 1.067.299.377.008.749-.099 1.064-.307z" clip-path="url(#E)"/><path d="M98.394 7.301h1.195l2.984 4.675-.037-1.229V7.301h.965v6.032h-1.157l-3.03-4.749.045 1.435v3.315h-.965z" clip-path="url(#D)"/></g><path d="M27.888 7.333H16.819c-5.219 0-7.128 1.909-7.128 7.128v11.077c0 5.219 1.909 7.128 7.128 7.128h11.069c5.219 0 7.131-1.909 7.131-7.128V14.461c.005-5.219-1.904-7.128-7.131-7.128z" clip-path="url(#C)" fill="#c8102e" fill-rule="evenodd"/><g class="B"><path d="M14.706 20h.672v3.315h-.672v-1.347h-1.517v1.347h-.672V20h.672v1.333h1.517zm3.787 1.896c0 .533-.267.827-.752.827s-.757-.293-.757-.856V20h-.672v1.893c0 .931.517 1.464 1.419 1.464s1.435-.533 1.435-1.493V20h-.672zm7.765.381L25.506 20h-.552l-.747 2.28-.733-2.28h-.715l1.155 3.315h.557l.749-2.176.752 2.176h.563L27.69 20h-.699zm2.635-.392h1.224v-.6h-1.224v-.677h1.776V20h-2.437v3.307h2.501v-.597h-1.84zm2.64 1.421h.664V20h-.664zm-11.04-.685l-.301.688h-.685L20.954 20h.592l1.453 3.309h-.693l-.285-.685zm.251-.597h1.011l-.507-1.184z" clip-path="url(#B)"/><path d="M22.357 15.784a4.22 4.22 0 0 1-4.216-4.216h.595a3.62 3.62 0 0 0 3.621 3.621 3.62 3.62 0 0 0 3.621-3.621h.595a4.22 4.22 0 0 1-4.216 4.216z" clip-path="url(#A)"/></g></g><defs><clipPath id="A"><path d="M.954 0h133.33v40H.954z" class="B"/></clipPath><clipPath id="B"><path d="M.954 0h133.33v40H.954z" class="B"/></clipPath><clipPath id="C"><path d="M.954 0h133.33v40H.954z" class="B"/></clipPath><clipPath id="D"><path d="M.954 0h133.33v40H.954z" class="B"/></clipPath><clipPath id="E"><path d="M.954 0h133.33v40H.954z" class="B"/></clipPath><clipPath id="F"><path d="M.954 0h133.33v40H.954z" class="B"/></clipPath><clipPath id="G"><path d="M.954 0h133.33v40H.954z" class="B"/></clipPath><clipPath id="H"><path d="M.954 0h133.33v40H.954z" class="B"/></clipPath><clipPath id="I"><path d="M.954 0h133.33v40H.954z" class="B"/></clipPath><clipPath id="J"><path d="M.954 0h133.33v40H.954z" class="B"/></clipPath><clipPath id="K"><path d="M.954 0h133.33v40H.954z" class="B"/></clipPath><clipPath id="L"><path d="M.954 0h133.33v40H.954z" class="B"/></clipPath><clipPath id="M"><path d="M.954 0h133.33v40H.954z" class="B"/></clipPath><clipPath id="N"><path d="M.954 0h133.33v40H.954z" class="B"/></clipPath><clipPath id="O"><path d="M.954 0h133.33v40H.954z" class="B"/></clipPath><clipPath id="P"><path d="M.954 0h133.33v40H.954z" class="B"/></clipPath><clipPath id="Q"><path d="M.954 0h133.33v40H.954z" class="B"/></clipPath><clipPath id="R"><path d="M.954 0h133.33v40H.954z" class="B"/></clipPath><clipPath id="S"><path d="M.954 0h133.33v40H.954z" class="B"/></clipPath><clipPath id="T"><path d="M.954 0h133.33v40H.954z" class="B"/></clipPath><clipPath id="U"><path d="M.954 0h133.33v40H.954z" class="B"/></clipPath><clipPath id="V"><path d="M.954 0h133.33v40H.954z" class="B"/></clipPath><clipPath id="W"><path d="M.954 0h133.33v40H.954z" class="B"/></clipPath><clipPath id="X"><path d="M.954 0h133.33v40H.954z" class="B"/></clipPath><clipPath id="Y"><path d="M.954 0h133.33v40H.954z" class="B"/></clipPath><clipPath id="Z"><path d="M.954 0h133.33v40H.954z" class="B"/></clipPath></defs></svg>